<?xml version="1.0" ?><svg viewBox="0 0 256 256" xmlns="http://www.w3.org/2000/svg"><rect fill="none" height="256" width="256"/><path d="M 59.84 55.412 L 59.84 23.412 C 59.84 17.254 66.507 13.405 71.84 16.484 C 74.315 17.913 75.84 20.554 75.84 23.412 L 75.84 55.412 C 75.84 61.57 69.173 65.419 63.84 62.34 C 61.365 60.911 59.84 58.27 59.84 55.412 Z M 99.84 63.412 C 104.258 63.412 107.84 59.83 107.84 55.412 L 107.84 23.412 C 107.84 17.254 101.173 13.405 95.84 16.484 C 93.365 17.913 91.84 20.554 91.84 23.412 L 91.84 55.412 C 91.84 59.83 95.422 63.412 99.84 63.412 Z M 131.84 63.412 C 136.258 63.412 139.84 59.83 139.84 55.412 L 139.84 23.412 C 139.84 17.254 133.173 13.405 127.84 16.484 C 125.365 17.913 123.84 20.554 123.84 23.412 L 123.84 55.412 C 123.84 59.83 127.422 63.412 131.84 63.412 Z M 251.905 112.187 C 251.905 151.109 226.176 156.027 192.244 156.027 C 178.579 156.027 175.547 196.51 163.34 207.412 C 163.449 207.552 145.985 226.777 99.436 226.777 C 51.39 226.777 36.34 207.412 36.34 207.412 C 15.719 189.156 3.891 162.953 3.84 135.412 L 3.84 87.412 C 3.84 82.994 7.422 79.412 11.84 79.412 L 187.84 79.412 C 220.661 79.312 251.905 78.666 251.905 112.187 Z M 229.613 117.316 C 229.613 99.392 204.029 104.311 193.928 104.311 C 193.928 104.311 194.519 131.935 194.954 131.935 C 205.587 131.935 229.613 134.194 229.613 117.316 Z"/></svg>
